<svg width="50" height="50" viewBox="0 0 50 50" fill="none" xmlns="http://www.w3.org/2000/svg">
    <path d="M36.6211 12.2087V16.1132H40.5257C40.0084 14.2196 38.5147 12.7258 36.6211 12.2087Z" fill="#0075F2"></path>
    <path d="M45.6055 2.83203H4.39453C1.97139 2.83203 0 4.80342 0 7.22656V33.3984C0 35.8216 1.97139 37.793 4.39453 37.793H45.6055C48.0286 37.793 50 35.8216 50 33.3984V7.22656C50 4.80342 48.0286 2.83203 45.6055 2.83203ZM8.74121 24.9609C7.75049 25.7428 6.34766 25.0503 6.34766 23.8281C6.34766 22.988 7.06777 22.2885 7.95703 22.37C9.25 22.5068 9.74844 24.1116 8.74121 24.9609ZM9.26953 17.7217C9.20654 18.4933 8.48662 19.1185 7.66797 19.0352C6.8917 18.9704 6.27022 18.2492 6.35547 17.4345C6.41982 16.6388 7.18896 15.9713 8.09863 16.1416C8.86885 16.3015 9.34395 17.0041 9.26953 17.7217ZM9.27051 11.4726C9.13848 12.7467 7.53906 13.2775 6.67969 12.2567C6.14111 11.5754 6.29365 10.6776 6.88379 10.1952C7.90137 9.36602 9.40176 10.1933 9.27051 11.4726ZM16.4062 31.543H14.0625C13.2535 31.543 12.5977 30.8871 12.5977 30.0781C12.5977 29.2691 13.2535 28.6133 14.0625 28.6133H16.4062C17.2152 28.6133 17.8711 29.2691 17.8711 30.0781C17.8711 30.8871 17.2152 31.543 16.4062 31.543ZM21.875 25.293H14.0625C13.2535 25.293 12.5977 24.6371 12.5977 23.8281C12.5977 23.0191 13.2535 22.3633 14.0625 22.3633H21.875C22.684 22.3633 23.3398 23.0191 23.3398 23.8281C23.3398 24.6371 22.684 25.293 21.875 25.293ZM21.875 19.043H14.0625C13.2535 19.043 12.5977 18.3871 12.5977 17.5781C12.5977 16.7691 13.2535 16.1133 14.0625 16.1133H21.875C22.684 16.1133 23.3398 16.7691 23.3398 17.5781C23.3398 18.3871 22.684 19.043 21.875 19.043ZM21.875 12.793H14.0625C13.2535 12.793 12.5977 12.1371 12.5977 11.3281C12.5977 10.5191 13.2535 9.86328 14.0625 9.86328H21.875C22.684 9.86328 23.3398 10.5191 23.3398 11.3281C23.3398 12.1371 22.684 12.793 21.875 12.793ZM30.4688 31.543H28.125C27.316 31.543 26.6602 30.8871 26.6602 30.0781C26.6602 29.2691 27.316 28.6133 28.125 28.6133H30.4688C31.2777 28.6133 31.9336 29.2691 31.9336 30.0781C31.9336 30.8871 31.2777 31.543 30.4688 31.543ZM35.1562 26.0742C30.4715 26.0742 26.6602 22.2629 26.6602 17.5781C26.6602 12.8934 30.4715 9.08203 35.1562 9.08203C39.841 9.08203 43.6523 12.8934 43.6523 17.5781C43.6523 22.2629 39.841 26.0742 35.1562 26.0742Z" fill="#1D293F"></path>
    <path d="M33.6914 17.5781V12.2087C31.3307 12.8536 29.5898 15.0158 29.5898 17.5781C29.5898 20.6474 32.0869 23.1445 35.1563 23.1445C37.7186 23.1445 39.8809 21.4037 40.5257 19.0429H35.1563C34.3473 19.0429 33.6914 18.3871 33.6914 17.5781Z" fill="#0075F2"></path>
    <path d="M40.625 44.2383H31.1523V40.7227H18.8477V44.2383H9.375C8.56602 44.2383 7.91016 44.8941 7.91016 45.7031C7.91016 46.5121 8.56602 47.168 9.375 47.168H40.625C41.434 47.168 42.0898 46.5121 42.0898 45.7031C42.0898 44.8941 41.434 44.2383 40.625 44.2383Z" fill="#0075F2"></path>
</svg>