<svg width="50" height="50" viewBox="0 0 50 50" fill="none" xmlns="http://www.w3.org/2000/svg">
    <g clip-path="url(#clip0)">
        <path d="M48.9746 0.00631697C39.2142 -0.168683 28.0829 4.9334 21.0371 12.848C14.3038 12.9751 7.74751 15.7355 2.92043 20.5626C2.63918 20.8397 2.53918 21.2542 2.66209 21.6292C2.78709 22.0063 3.11209 22.2792 3.50376 22.3355L11.5329 23.4855L10.5413 24.5959C10.1725 25.0084 10.1913 25.6355 10.5829 26.0272L23.9725 39.4167C24.1746 39.6188 24.4413 39.7209 24.71 39.7209C24.9579 39.7209 25.2058 39.6334 25.4038 39.4563L26.5142 38.4646L27.6642 46.4938C27.7204 46.8855 28.0288 47.173 28.4017 47.298C28.4975 47.3292 28.5975 47.3438 28.6996 47.3438C28.9954 47.3438 29.2975 47.2146 29.5058 47.0084C34.2663 42.248 37.0267 35.6917 37.1538 28.9584C45.0767 21.898 50.2204 10.7709 49.9933 1.02298C49.9788 0.468817 49.5308 0.0209003 48.9746 0.00631697ZM39.3746 17.9897C38.36 19.0042 37.0267 19.5126 35.6913 19.5126C34.3558 19.5126 33.0225 19.0042 32.0079 17.9897C29.9788 15.9584 29.9788 12.6542 32.0079 10.623C34.0392 8.59173 37.3433 8.59173 39.3746 10.623C41.4058 12.6542 41.4058 15.9605 39.3746 17.9897Z" fill="#1D293F"></path>
        <path d="M5.67512 35.2189C3.44595 37.4481 0.385536 47.5189 0.0438696 48.6585C-0.0665471 49.0252 0.0355363 49.4231 0.304286 49.6939C0.504286 49.8939 0.76887 50.0002 1.04179 50.0002C1.14179 50.0002 1.24179 49.9856 1.34179 49.9564C2.48137 49.6148 12.5522 46.5544 14.7814 44.3252C17.2918 41.8148 17.2918 37.7294 14.7814 35.2189C12.2689 32.7085 8.18554 32.7106 5.67512 35.2189Z" fill="#0075F2"></path>
    </g>
    <defs>
        <clipPath id="clip0">
            <rect width="50" height="50" fill="white"></rect>
        </clipPath>
    </defs>
</svg>