<svg width="50" height="50" viewBox="0 0 50 50" fill="none" xmlns="http://www.w3.org/2000/svg">
    <path d="M50 33.8379C50 27.6333 46.4405 22.0959 41.1095 19.4023C40.9439 31.2989 31.2989 40.9439 19.4023 41.1095C22.0959 46.4405 27.6333 50 33.8379 50C36.747 50 39.576 49.2253 42.0616 47.7532L48.2286 49.459C48.9774 49.6661 49.6661 48.9774 49.459 48.2286L47.7532 42.0616C49.2253 39.576 50 36.747 50 33.8379Z" fill="#1D293F"></path>
    <path d="M38.1836 19.0918C38.1836 8.56438 29.6192 0 19.0918 0C8.56438 0 0 8.56438 0 19.0918C0 22.5227 0.913239 25.8633 2.6474 28.796L0.540655 36.4122C0.333514 37.1611 1.02216 37.8497 1.77102 37.6426L9.38759 35.5362C12.3203 37.2704 15.6609 38.1836 19.0918 38.1836C29.6192 38.1836 38.1836 29.6192 38.1836 19.0918ZM16.1621 14.6484H13.2324C13.2324 11.4174 15.8607 8.78906 19.0918 8.78906C22.3228 8.78906 24.9512 11.4174 24.9512 14.6484C24.9512 16.2884 24.2569 17.8646 23.0457 18.9724L20.5566 21.2505V23.5352H17.627V19.9604L21.0678 16.811C21.6827 16.2483 22.0215 15.4804 22.0215 14.6484C22.0215 13.0329 20.7073 11.7188 19.0918 11.7188C17.4763 11.7188 16.1621 13.0329 16.1621 14.6484ZM17.627 26.4648H20.5566V29.3945H17.627V26.4648Z" fill="#0075F2"></path>
</svg>