<?xml version="1.0" standalone="no"?>
<!DOCTYPE svg PUBLIC "-//W3C//DTD SVG 20010904//EN"
 "http://www.w3.org/TR/2001/REC-SVG-20010904/DTD/svg10.dtd">
<svg version="1.0" xmlns="http://www.w3.org/2000/svg"
 width="381.000000pt" height="381.000000pt" viewBox="0 0 381.000000 381.000000"
 preserveAspectRatio="xMidYMid meet">

<g transform="translate(0.000000,381.000000) scale(0.100000,-0.100000)"
fill="#000000" stroke="none">
<path d="M1705 3765 c-443 -70 -837 -340 -1055 -721 -175 -306 -236 -666 -170
-995 43 -212 146 -444 268 -604 120 -158 210 -205 392 -205 192 0 288 37 410
159 122 122 167 234 158 387 -7 104 -38 185 -94 241 -24 23 -40 43 -36 43 23
0 121 -69 175 -123 79 -78 138 -161 217 -307 84 -153 148 -247 227 -331 79
-84 141 -130 247 -186 l80 -41 -40 -17 c-182 -77 -319 -105 -546 -112 -218 -7
-212 -10 -153 88 130 213 165 388 104 528 -20 47 -83 120 -94 109 -3 -3 7 -31
21 -63 25 -53 26 -65 22 -159 -6 -120 -28 -183 -111 -308 -66 -102 -120 -158
-151 -158 -55 0 -215 66 -376 155 -65 36 -152 75 -200 89 l-85 25 50 -45 c186
-169 492 -309 730 -336 153 -16 470 -5 570 21 251 66 471 190 662 374 l103
100 0 91 c0 184 -52 305 -193 452 -100 106 -151 141 -269 189 -110 45 -203 68
-445 110 -186 32 -383 74 -425 90 -10 4 -18 3 -18 -3 0 -6 136 -78 303 -160
338 -167 432 -227 573 -368 65 -65 100 -108 123 -155 40 -83 74 -242 69 -328
-5 -74 -13 -83 -128 -152 l-70 -41 -56 33 c-177 108 -239 186 -427 545 -132
254 -188 324 -293 373 -84 40 -228 64 -236 40 -2 -7 -13 -7 -33 2 -53 20 -182
15 -260 -11 -64 -21 -280 -124 -315 -150 -34 -26 69 -1 190 45 112 43 133 48
203 47 92 -1 137 -19 181 -75 29 -37 31 -44 31 -125 0 -74 -4 -95 -27 -142
-75 -151 -241 -283 -437 -347 l-83 -28 -65 68 c-141 149 -240 312 -306 502
-54 158 -62 215 -62 455 1 191 3 225 24 305 143 556 569 949 1131 1041 174 29
474 4 639 -53 127 -43 377 -175 366 -192 -6 -11 -87 -18 -400 -36 -148 -8
-283 -18 -300 -21 -27 -6 -21 4 61 87 91 94 152 174 141 185 -3 4 -37 -14 -75
-39 -38 -25 -178 -105 -311 -177 -241 -130 -509 -288 -651 -383 -146 -98 -289
-268 -340 -405 -32 -83 -52 -191 -46 -237 5 -37 2 -45 -45 -100 -111 -133
-156 -283 -111 -372 38 -74 116 -130 210 -152 l41 -9 -35 50 c-65 95 -35 168
69 168 48 0 59 4 111 45 58 45 80 53 191 76 84 16 209 66 231 91 16 18 16 20
3 15 -40 -14 -163 -47 -269 -72 -143 -33 -196 -56 -212 -89 -10 -24 -16 -26
-77 -26 -45 0 -74 -5 -90 -16 -27 -19 -51 -71 -51 -111 l-1 -28 -35 39 c-19
22 -40 57 -46 79 -10 35 -9 48 11 106 46 134 151 281 151 213 0 -40 88 -93
196 -118 75 -17 107 -13 54 8 -129 49 -200 116 -200 188 0 21 -5 42 -11 46 -8
5 -10 28 -6 72 12 121 130 316 252 415 229 186 743 388 982 387 53 -1 43 -5
-132 -49 -104 -27 -222 -60 -260 -74 -79 -27 -159 -66 -152 -73 2 -3 85 8 183
22 157 24 210 28 434 28 249 1 258 0 358 -27 250 -67 442 -169 665 -353 56
-46 106 -84 111 -84 27 0 -59 220 -139 356 -226 383 -630 652 -1069 713 -101
14 -300 12 -401 -4z m1180 -478 c62 -62 118 -123 124 -135 l12 -22 -53 21
c-84 34 -235 75 -343 93 -200 35 -197 23 -28 93 81 34 154 62 162 62 8 1 64
-50 126 -112z"/>
<path d="M1815 3042 c6 -6 89 -15 185 -22 358 -23 538 -64 753 -171 194 -97
339 -210 479 -372 l58 -68 0 -97 c0 -53 -4 -103 -9 -110 -6 -10 -19 -4 -55 27
-26 22 -78 59 -117 82 -244 142 -454 192 -809 193 -173 0 -224 -3 -325 -23
-196 -37 -389 -81 -400 -92 -14 -14 103 -11 240 6 141 17 361 19 472 4 255
-35 611 -236 779 -440 49 -60 107 -164 134 -242 l18 -50 16 26 c27 40 86 213
108 312 13 63 21 148 25 286 l6 195 -54 51 c-165 156 -384 315 -541 394 -44
22 -128 57 -186 77 l-107 37 -340 3 c-221 2 -337 0 -330 -6z"/>
<path d="M1906 2684 c-60 -18 -129 -28 -280 -39 -288 -22 -377 -41 -478 -106
-52 -34 -68 -55 -68 -90 0 -21 1 -21 18 -6 25 23 62 21 204 -8 165 -34 211
-33 249 4 20 21 29 39 29 63 0 18 4 38 8 44 4 6 54 21 111 33 162 35 301 91
301 122 0 12 -2 12 -94 -17z m-402 -160 c10 -27 7 -61 -8 -74 -23 -18 -59 -8
-75 22 -18 31 -11 44 16 30 24 -13 43 -5 43 19 0 23 15 25 24 3z"/>
<path d="M1064 2254 c38 -13 71 -22 74 -20 2 2 -1 14 -8 25 -9 18 -20 21 -73
20 l-62 0 69 -25z"/>
</g>
</svg>
