<svg width="51" height="48" viewBox="0 0 51 48" fill="none" xmlns="http://www.w3.org/2000/svg">
    <path d="M2.36719 47.5375H28.9308C29.7407 47.5375 30.3961 46.8821 30.3961 46.0726V44.6074H8.22695C5.80347 44.6074 3.83203 42.6363 3.83203 40.2129V3.49219H2.36719C1.55771 3.49219 0.902344 4.14755 0.902344 4.95741V46.0726C0.902344 46.8821 1.55771 47.5375 2.36719 47.5375Z" fill="#1D293F"></path>
    <path d="M24.5361 9.35204H32.4673L24.5361 1.4209V9.35204Z" fill="#1D293F"></path>
    <path d="M8.22656 0.5625C7.4167 0.5625 6.76172 1.21787 6.76172 2.02734V40.2129C6.76172 41.0223 7.4167 41.6777 8.22656 41.6777H31.8605C32.67 41.6777 33.3254 41.0223 33.3254 40.2129V38.3299C32.3721 38.5798 31.3963 38.748 30.3957 38.748C23.9336 38.748 18.6762 33.4906 18.6762 27.0285C18.6762 20.5668 23.9336 15.3094 30.3957 15.3094C31.4131 15.3094 32.3831 15.4806 33.3254 15.7255V12.2816H23.0711C22.2612 12.2816 21.6062 11.6267 21.6062 10.8168V0.5625H8.22656Z" fill="#1D293F"></path>
    <path d="M41.7065 34.1986C41.1347 33.6267 40.2081 33.6267 39.6362 34.1974L37.5473 32.1085C38.57 30.6723 39.1853 28.9263 39.1853 27.0285C39.1853 22.1743 35.2501 18.239 30.3959 18.239C25.5413 18.239 21.6064 22.1743 21.6064 27.0285C21.6064 31.883 25.5413 35.8179 30.3959 35.8179C32.2933 35.8179 34.0393 35.203 35.4759 34.1803L37.5645 36.2688L37.5633 36.2696C36.9911 36.8418 36.9911 37.7691 37.5633 38.3417L45.903 46.681C47.0455 47.8239 48.9052 47.8216 50.0462 46.681C51.1875 45.5397 51.1875 43.68 50.0462 42.5383L41.7065 34.1986Z" fill="#0075F2"></path>
</svg>